# xmcd
#
# Track frame offsets:
# 182
# 12267
# 25582
# 39767
# 51640
# 63902
# 80305
# 90955
# 103250
# 115717
# 129627
#
# Disc length: 1882 seconds
#
#
# Revision: 3
# Processed by: cddbd v1.5.1PL2 Copyright (c) Steve Scherf et al.
# Submitted via: FreeRIP 2.945 
#
DISCID=7e07580b
DTITLE=Hank Williams Jr -  Best Of The Early Years
DYEAR=1995
DGENRE=Country
TTITLE0=Cajun Baby
TTITLE1=Rainin' In My Heart
TTITLE2=Standing In The Shadows
TTITLE3=It's All Over But The Crying
TTITLE4=I'd Rather Be Gone
TTITLE5=Living Proof
TTITLE6=Ain't That A Shame
TTITLE7=Hank
TTITLE8=The Last Love Song
TTITLE9=Rainy Night In Georgia
TTITLE10=I've Got A Right To Cry
EXTD=Polygram Records
EXTT0=
EXTT1=
EXTT2=
EXTT3=
EXTT4=
EXTT5=
EXTT6=
EXTT7=
EXTT8=
EXTT9=
EXTT10=
PLAYORDER=
